<!-- <svg xmlns="http://www.w3.org/2000/svg" viewBox="0 0 24 24" width="24" height="24" color="#232f3e" fill="none">
    <path d="M9.00005 6C9.00005 6 15 10.4189 15 12C15 13.5812 9 18 9 18" stroke="currentColor" stroke-width="1.5" stroke-linecap="round" stroke-linejoin="round" />
</svg> -->
<!-- 
<svg xmlns="http://www.w3.org/2000/svg" viewBox="0 0 50 50" id="right-arrow"><path fill="#231F20" d="M15.563 40.836a.997.997 0 0 0 1.414 0l15-15a.999.999 0 0 0 0-1.414l-15-15a.999.999 0 1 0-1.414 1.414l14.293 14.293-14.293 14.293a.999.999 0 0 0 0 1.414z"></path></svg> -->

<svg xmlns="http://www.w3.org/2000/svg" viewBox="0 0 50 50" id="left-arrow"><path d="M13.854 48.707 37.561 25 13.854 1.293l-1.415 1.414L34.732 25 12.439 47.293z"></path></svg>