<!-- <svg xmlns="http://www.w3.org/2000/svg" viewBox="0 0 24 24" width="24" height="24" color="#000000" fill="none">
    <path d="M17.5 17.5L22 22" stroke="currentColor" stroke-width="1.5" stroke-linecap="round" stroke-linejoin="round" />
    <path d="M20 11C20 6.02944 15.9706 2 11 2C6.02944 2 2 6.02944 2 11C2 15.9706 6.02944 20 11 20C15.9706 20 20 15.9706 20 11Z" stroke="currentColor" stroke-width="1.5" stroke-linejoin="round" />
</svg> -->
<!-- <svg xmlns="http://www.w3.org/2000/svg" data-name="Layer 1" viewBox="0 0 64 64" id="search"><circle cx="22.01" cy="22" r="20.02" fill="none" stroke="#010101" stroke-miterlimit="10" stroke-width="4"></circle><path fill="none" stroke="#010101" stroke-miterlimit="10" stroke-width="4" d="M35.94,36Q49,49,62,62"></path></svg> -->
<svg xmlns="http://www.w3.org/2000/svg" width="16" height="16" id="search"><path fill="#383634" d="m15.7 13.3-3.81-3.83A5.93 5.93 0 0 0 13 6c0-3.31-2.69-6-6-6S1 2.69 1 6s2.69 6 6 6c1.3 0 2.48-.41 3.47-1.11l3.83 3.81c.19.2.45.3.7.3.25 0 .52-.09.7-.3a.996.996 0 0 0 0-1.41v.01zM7 10.7c-2.59 0-4.7-2.11-4.7-4.7 0-2.59 2.11-4.7 4.7-4.7 2.59 0 4.7 2.11 4.7 4.7 0 2.59-2.11 4.7-4.7 4.7z"></path></svg>